Coordinates
version=1
nRows=41
nColumns=38
inDegrees=no

Units are S.I. units (second, meters, Newtons, ...)
If the header above contains a line with 'inDegrees', this indicates whether rotational values are in degrees (yes) or radians (no).

endheader
time	pelvis_tilt	pelvis_list	pelvis_rotation	pelvis_tx	pelvis_ty	pelvis_tz	hip_flexion_r	hip_adduction_r	hip_rotation_r	knee_angle_r	ankle_angle_r	subtalar_angle_r	mtp_angle_r	hip_flexion_l	hip_adduction_l	hip_rotation_l	knee_angle_l	ankle_angle_l	subtalar_angle_l	mtp_angle_l	lumbar_extension	lumbar_bending	lumbar_rotation	arm_flex_r	arm_add_r	arm_rot_r	elbow_flex_r	pro_sup_r	wrist_flex_r	wrist_dev_r	arm_flex_l	arm_add_l	arm_rot_l	elbow_flex_l	pro_sup_l	wrist_flex_l	wrist_dev_l
35	0.0058731	1.01783	1.58298	0.703149	0.0976322	0.687501	1.54666	-0.551375	-0.280511	1.77408	0.490103	0	0	1.49928	-0.558464	-0.343883	1.78337	0.523598	0	0	-0.474744	-0.015107	0.0755613	1.17853	-0.473657	0.139553	0.949848	0.793568	0	0	1.24019	-0.380597	0.284813	0.927359	0.929785	0	0
35.01	0.0037479	1.01857	1.58421	0.702885	0.0968794	0.687546	1.55014	-0.55031	-0.27665	1.77497	0.485178	0	0	1.50098	-0.557845	-0.343351	1.78493	0.523598	0	0	-0.47496	-0.0153877	0.0763115	1.18265	-0.474531	0.143795	0.945792	0.790641	0	0	1.24422	-0.380125	0.291803	0.921542	0.924501	0	0
35.02	0.00153723	1.01967	1.58562	0.70257	0.0960648	0.687602	1.55351	-0.549625	-0.272675	1.776	0.479857	0	0	1.50253	-0.55726	-0.342922	1.78669	0.523598	0	0	-0.475665	-0.0156545	0.0769818	1.18673	-0.476407	0.150416	0.94313	0.775238	0	0	1.24861	-0.38022	0.301563	0.916423	0.900109	0	0
35.03	-0.00118888	1.02084	1.58754	0.702214	0.095199	0.687696	1.557	-0.549193	-0.268329	1.7769	0.474453	0	0	1.50378	-0.556624	-0.343074	1.78834	0.522482	0	0	-0.476481	-0.0161964	0.0775063	1.19034	-0.477913	0.155048	0.940849	0.766884	0	0	1.25308	-0.379669	0.309781	0.910247	0.888203	0	0
35.04	-0.00427863	1.02196	1.58963	0.701856	0.0943022	0.687824	1.56047	-0.548694	-0.263873	1.77768	0.469172	0	0	1.50469	-0.55634	-0.34401	1.78976	0.517039	0	0	-0.477232	-0.0170725	0.077843	1.19362	-0.478769	0.157947	0.938679	0.761445	0	0	1.25725	-0.379287	0.317507	0.904697	0.880788	0	0
35.05	-0.00741208	1.02307	1.59164	0.701483	0.0933952	0.687982	1.56357	-0.548065	-0.259664	1.7782	0.464521	0	0	1.50515	-0.55637	-0.345665	1.79094	0.511659	0	0	-0.477811	-0.0179462	0.0779887	1.19682	-0.478914	0.159939	0.936167	0.757662	0	0	1.26052	-0.379095	0.324097	0.900376	0.875347	0	0
35.06	-0.0102032	1.0241	1.59335	0.701089	0.0924706	0.688159	1.56612	-0.547443	-0.256171	1.77832	0.460744	0	0	1.50539	-0.556537	-0.347654	1.79178	0.50701	0	0	-0.478194	-0.0184254	0.0778176	1.20014	-0.478396	0.161778	0.933508	0.755631	0	0	1.26262	-0.379295	0.328808	0.897653	0.87043	0	0
35.07	-0.0123187	1.02471	1.59493	0.700615	0.091489	0.688334	1.56835	-0.547226	-0.253593	1.77775	0.457636	0	0	1.50605	-0.556054	-0.349456	1.79206	0.502264	0	0	-0.47822	-0.018014	0.0771372	1.20365	-0.477656	0.163423	0.931494	0.755328	0	0	1.26369	-0.37959	0.331249	0.896023	0.866206	0	0
35.08	-0.0141242	1.02482	1.59679	0.70007	0.0904347	0.688528	1.57054	-0.547421	-0.251465	1.77641	0.455035	0	0	1.50713	-0.554649	-0.35114	1.79171	0.497897	0	0	-0.478054	-0.0169796	0.0760608	1.20727	-0.477078	0.164619	0.930396	0.755966	0	0	1.26483	-0.379521	0.332333	0.894294	0.86273	0	0
35.09	-0.0158614	1.0245	1.59878	0.699524	0.0893197	0.688782	1.57269	-0.547515	-0.249601	1.7744	0.452978	0	0	1.50852	-0.552606	-0.352422	1.79081	0.49412	0	0	-0.477992	-0.0158338	0.0751639	1.21094	-0.47673	0.164848	0.929595	0.757027	0	0	1.26709	-0.378779	0.333161	0.891917	0.860266	0	0
35.1	-0.0178091	1.02378	1.60055	0.699036	0.0881533	0.689115	1.57478	-0.546772	-0.247879	1.77157	0.451855	0	0	1.51003	-0.550759	-0.353704	1.78947	0.490562	0	0	-0.478131	-0.0150836	0.0750696	1.21487	-0.476395	0.164042	0.928236	0.75763	0	0	1.27078	-0.377651	0.335025	0.888765	0.858748	0	0
35.11	-0.0196328	1.02266	1.60157	0.698618	0.0869348	0.689511	1.57686	-0.544931	-0.246352	1.76805	0.451145	0	0	1.51184	-0.549437	-0.354834	1.78774	0.48697	0	0	-0.478357	-0.0145822	0.07589	1.2193	-0.475788	0.16274	0.926134	0.757249	0	0	1.27486	-0.376662	0.337576	0.886219	0.857532	0	0
35.12	-0.0207536	1.02126	1.60149	0.698223	0.0856658	0.689936	1.57879	-0.542327	-0.245332	1.76433	0.4503	0	0	1.51406	-0.548602	-0.355652	1.78573	0.483361	0	0	-0.478659	-0.0137257	0.0771865	1.22448	-0.475181	0.162647	0.923721	0.756725	0	0	1.27798	-0.376113	0.339021	0.885136	0.855634	0	0
35.13	-0.0217244	1.01939	1.60164	0.697753	0.0843368	0.69037	1.58118	-0.540119	-0.244354	1.76037	0.449206	0	0	1.5166	-0.547072	-0.356561	1.78323	0.480135	0	0	-0.478686	-0.0123569	0.0776889	1.23012	-0.474942	0.16467	0.921806	0.756659	0	0	1.27956	-0.375761	0.337509	0.885	0.852331	0	0
35.14	-0.0235927	1.01753	1.60286	0.697275	0.0830269	0.690959	1.58365	-0.538405	-0.243034	1.75609	0.447706	0	0	1.51798	-0.544993	-0.358621	1.77996	0.47783	0	0	-0.479172	-0.0111915	0.0770375	1.23581	-0.474498	0.167819	0.920843	0.757217	0	0	1.28009	-0.375402	0.332464	0.885248	0.848374	0	0
35.15	-0.0256514	1.0157	1.60457	0.69678	0.0817499	0.69168	1.58603	-0.537277	-0.241905	1.75171	0.4458	0	0	1.51843	-0.542504	-0.361501	1.77596	0.476532	0	0	-0.479826	-0.00985408	0.0756648	1.24135	-0.473736	0.171434	0.920435	0.758402	0	0	1.27994	-0.374989	0.325328	0.886387	0.844883	0	0
35.16	-0.0273977	1.01389	1.60622	0.696253	0.0805315	0.692499	1.58798	-0.536651	-0.241392	1.74707	0.443666	0	0	1.51832	-0.53991	-0.364672	1.77143	0.475299	0	0	-0.480449	-0.00820779	0.0743565	1.24651	-0.473006	0.17465	0.920213	0.760767	0	0	1.27966	-0.374405	0.318437	0.88818	0.841718	0	0
35.17	-0.0289477	1.01193	1.6073	0.695736	0.0793815	0.69342	1.5895	-0.5358	-0.241441	1.74201	0.441724	0	0	1.51792	-0.537989	-0.368011	1.76664	0.474349	0	0	-0.480706	-0.00672855	0.0739744	1.25092	-0.472512	0.176351	0.920318	0.764619	0	0	1.27947	-0.373783	0.313684	0.890097	0.838312	0	0
35.18	-0.0310076	1.00984	1.60806	0.695282	0.0782987	0.694475	1.59079	-0.534354	-0.241531	1.73664	0.439622	0	0	1.51704	-0.536945	-0.371903	1.76163	0.472715	0	0	-0.480569	-0.00622147	0.0746681	1.25426	-0.472235	0.176529	0.920119	0.769675	0	0	1.2794	-0.373374	0.311505	0.892028	0.833919	0	0
35.19	-0.0328909	1.0077	1.60836	0.694836	0.0772803	0.695682	1.59165	-0.532882	-0.242051	1.73118	0.437	0	0	1.51613	-0.536484	-0.375947	1.75656	0.470316	0	0	-0.480146	-0.0058745	0.076069	1.25697	-0.473932	0.180894	0.921134	0.745309	0	0	1.27872	-0.372242	0.307539	0.893373	0.84458	0	0
35.2	-0.0344346	1.00581	1.60867	0.694406	0.0763529	0.697056	1.59183	-0.532004	-0.243048	1.72549	0.434082	0	0	1.51507	-0.536052	-0.379878	1.75147	0.467195	0	0	-0.479684	-0.00567547	0.0771656	1.25874	-0.474559	0.181063	0.92078	0.741896	0	0	1.27794	-0.371994	0.306421	0.895343	0.842531	0	0
35.21	-0.0354755	1.00414	1.60938	0.693915	0.0754909	0.698594	1.5914	-0.532328	-0.24458	1.71961	0.430663	0	0	1.51397	-0.534842	-0.383578	1.74617	0.463234	0	0	-0.47927	-0.00498364	0.0773689	1.26029	-0.475409	0.181931	0.920397	0.739598	0	0	1.27679	-0.371743	0.304756	0.897421	0.839391	0	0
35.22	-0.0363158	1.00253	1.6107	0.693362	0.0746748	0.700315	1.59057	-0.533632	-0.246347	1.71352	0.426665	0	0	1.51264	-0.532675	-0.387281	1.74041	0.458698	0	0	-0.478838	-0.00392678	0.0767303	1.2619	-0.476598	0.185462	0.919791	0.739622	0	0	1.27563	-0.371455	0.302881	0.899144	0.835773	0	0
35.23	-0.0368689	1.00101	1.61202	0.692801	0.0739172	0.702237	1.58918	-0.535112	-0.248492	1.70712	0.42236	0	0	1.51088	-0.530174	-0.391016	1.73409	0.454099	0	0	-0.478465	-0.00275774	0.0761153	1.2637	-0.477969	0.189172	0.918892	0.739519	0	0	1.27459	-0.37072	0.301199	0.900514	0.832093	0	0
35.24	-0.0370847	0.999638	1.61249	0.692315	0.0732212	0.704366	1.58712	-0.535692	-0.25104	1.70025	0.417863	0	0	1.50867	-0.528207	-0.394524	1.72743	0.449751	0	0	-0.478189	-0.0018845	0.0765647	1.26512	-0.479661	0.191595	0.918072	0.739014	0	0	1.27354	-0.369177	0.299799	0.901853	0.828652	0	0
35.25	-0.0373744	0.998439	1.61213	0.691931	0.0725612	0.706704	1.58454	-0.534821	-0.253565	1.69269	0.413212	0	0	1.50582	-0.526922	-0.398044	1.72029	0.445711	0	0	-0.477994	-0.00181979	0.0783561	1.2653	-0.481564	0.191412	0.918042	0.738688	0	0	1.27246	-0.367062	0.299155	0.902958	0.825123	0	0
35.26	-0.0377111	0.997292	1.61111	0.691635	0.0719172	0.709206	1.58157	-0.532629	-0.256056	1.68467	0.408317	0	0	1.50257	-0.525848	-0.401434	1.71255	0.44108	0	0	-0.477648	-0.00258047	0.0811196	1.26374	-0.483295	0.18778	0.918858	0.738026	0	0	1.27144	-0.364905	0.300043	0.904365	0.821363	0	0
35.27	-0.038141	0.995857	1.60993	0.69136	0.0712636	0.711809	1.57855	-0.529632	-0.258396	1.67585	0.403567	0	0	1.49945	-0.52434	-0.404507	1.70422	0.436685	0	0	-0.476745	-0.00388867	0.0841285	1.26081	-0.484813	0.181833	0.920288	0.737489	0	0	1.27053	-0.362932	0.302078	0.905795	0.817697	0	0
35.28	-0.0379071	0.994714	1.60865	0.691072	0.0706519	0.714567	1.57456	-0.52673	-0.26109	1.66671	0.399059	0	0	1.49622	-0.521893	-0.406765	1.69538	0.432386	0	0	-0.476091	-0.00488032	0.0866302	1.25732	-0.486504	0.176637	0.922373	0.738398	0	0	1.27019	-0.361296	0.304569	0.906744	0.814887	0	0
35.29	-0.0367638	0.993709	1.60732	0.690745	0.0700913	0.717479	1.56964	-0.524227	-0.264355	1.65705	0.394998	0	0	1.49319	-0.518406	-0.408218	1.68617	0.42764	0	0	-0.475487	-0.00508577	0.0883333	1.2539	-0.488298	0.172914	0.924729	0.739951	0	0	1.27011	-0.36003	0.306981	0.907038	0.812837	0	0
35.3	-0.0350891	0.992652	1.60626	0.690371	0.0695669	0.720524	1.56425	-0.522085	-0.267934	1.6468	0.390927	0	0	1.4903	-0.51391	-0.409195	1.67655	0.422661	0	0	-0.474725	-0.00458975	0.0891185	1.25114	-0.489817	0.170261	0.926052	0.740831	0	0	1.26994	-0.359421	0.309754	0.906967	0.811296	0	0
35.31	-0.0329822	0.991495	1.60515	0.689975	0.0690653	0.723688	1.55856	-0.51977	-0.271605	1.63639	0.386564	0	0	1.48752	-0.508739	-0.409885	1.66651	0.417535	0	0	-0.473811	-0.00354009	0.0892663	1.24884	-0.491232	0.170597	0.926794	0.742897	0	0	1.26922	-0.359447	0.312127	0.907396	0.809815	0	0
35.32	-0.030325	0.990272	1.60336	0.689607	0.0686013	0.726967	1.55254	-0.516615	-0.275284	1.62557	0.382137	0	0	1.48469	-0.503502	-0.410355	1.656	0.412574	0	0	-0.472805	-0.00215322	0.0892252	1.24644	-0.492187	0.171065	0.927953	0.744714	0	0	1.26769	-0.359974	0.313515	0.908761	0.808377	0	0
35.33	-0.0275487	0.989037	1.60078	0.689297	0.068193	0.73034	1.54646	-0.512298	-0.278618	1.61444	0.377463	0	0	1.48154	-0.498609	-0.410694	1.64513	0.408076	0	0	-0.471731	-0.000968472	0.089496	1.24322	-0.492704	0.170187	0.930162	0.746036	0	0	1.2654	-0.360919	0.314383	0.91054	0.807088	0	0
35.34	-0.0253548	0.987802	1.59783	0.689062	0.0678256	0.733812	1.54061	-0.506837	-0.281175	1.60303	0.37225	0	0	1.47786	-0.49412	-0.411087	1.6339	0.404025	0	0	-0.470568	-0.000545388	0.0902545	1.23881	-0.492677	0.167452	0.933488	0.747065	0	0	1.26236	-0.361976	0.314394	0.912772	0.806198	0	0
35.35	-0.0240303	0.986783	1.59499	0.688881	0.0675308	0.73738	1.53486	-0.50085	-0.283	1.59159	0.366539	0	0	1.47346	-0.489831	-0.411511	1.62242	0.400218	0	0	-0.469476	-0.000985523	0.0914312	1.23327	-0.492304	0.162708	0.937736	0.748797	0	0	1.25853	-0.362783	0.312974	0.915893	0.806395	0	0
35.36	-0.0230236	0.986486	1.59298	0.688643	0.0673593	0.741056	1.52829	-0.49605	-0.285101	1.58042	0.361004	0	0	1.46813	-0.484622	-0.411415	1.61066	0.396533	0	0	-0.46896	-0.00144067	0.0921466	1.22766	-0.492141	0.158695	0.941572	0.749517	0	0	1.25433	-0.363296	0.310604	0.919434	0.807789	0	0
35.37	-0.0174394	0.998224	1.59588	0.687759	0.0688594	0.74557	1.49833	-0.530365	-0.329141	1.57675	0.357988	0	0	1.45021	-0.473971	-0.409473	1.60123	0.395654	0	0	-0.481775	0.00447843	0.0864965	1.22312	-0.492088	0.154489	0.945593	0.750199	0	0	1.25121	-0.363455	0.308013	0.923108	0.809543	0	0
35.38	-0.0160049	0.998215	1.59376	0.687476	0.0688163	0.749332	1.49075	-0.526278	-0.332462	1.56507	0.352371	0	0	1.44455	-0.46869	-0.408984	1.58919	0.391422	0	0	-0.480801	0.00419461	0.0871176	1.21644	-0.492244	0.150512	0.950102	0.751706	0	0	1.246	-0.363302	0.30448	0.927071	0.812203	0	0
35.39	-0.0139485	0.998576	1.59186	0.687129	0.0688711	0.753113	1.48221	-0.523203	-0.336642	1.55361	0.347028	0	0	1.4385	-0.46322	-0.408665	1.57723	0.387252	0	0	-0.479568	0.00447461	0.0872654	1.2089	-0.492795	0.146469	0.955455	0.753548	0	0	1.23993	-0.362658	0.300183	0.931443	0.815012	0	0
35.4	-0.0114851	0.999155	1.58995	0.686743	0.0690027	0.756903	1.47288	-0.520527	-0.341444	1.54187	0.341976	0	0	1.43196	-0.457948	-0.408816	1.56533	0.383403	0	0	-0.477854	0.00508954	0.0873842	1.20043	-0.493623	0.142043	0.961317	0.755696	0	0	1.2329	-0.361675	0.295605	0.936382	0.818266	0	0
